<svg width="15" height="15" xmlns="http://www.w3.org/2000/svg"><path d="M1.195 1.016C1.787.423 3.32.195 3.59.638l.088.156c.425.783 1.769 3.531 1.782 3.82.014.313-1.298 1.514-1.61 1.826-.313.312 1.96 2.814 2.004 2.866l.444.397c.731.644 2.132 1.82 2.36 1.59l.473-.468c.501-.484 1.2-1.12 1.422-1.11.313.013 3.618 1.716 3.899 1.838.28.123.214 1.806-.378 2.4l-.068.064c-.643.577-3.236 2.157-7.62-1.003-.5-.288-1.025-.797-2.226-2l-.58-.586c-.81-.829-1.21-1.297-1.447-1.71C-1.15 4.15.689 1.524 1.195 1.017z" fill="#93979B" fill-rule="evenodd"/></svg>