<svg width="16" height="16" xmlns="http://www.w3.org/2000/svg"><path d="M8.106 14.177c-2.554-.008-4.873-1.52-5.865-3.826a6.095 6.095 0 011.254-6.759c1.755-1.77 4.46-2.303 6.823-1.343 2.788 1.153 4.399 4.033 3.865 6.91-.534 2.878-3.067 4.97-6.077 5.018zm6.35-1.56c2.368-3.249 1.84-7.747-1.23-10.472-3.053-2.703-7.69-2.704-10.66-.004-2.985 2.723-3.374 7.22-.905 10.471 2.442 3.239 6.998 4.152 10.478 2.102a.531.531 0 00.1.058l2.165.567a.539.539 0 00.518-.138.523.523 0 00.131-.513l-.598-2.07zm-4.282-3.335a.46.46 0 00-.464-.134.485.485 0 00-.332.363.543.543 0 00.134.496l.245.258H5.32a.394.394 0 00-.378.413l.003.2c-.006.217.169.4.391.412h4.44l-.237.26a.532.532 0 00-.118.495c.04.17.171.31.344.363a.45.45 0 00.46-.134l1.038-1.133a.541.541 0 00-.011-.724l-1.079-1.135zM6.076 6.75a.445.445 0 00.334-.15.541.541 0 00-.011-.724l-.245-.258h4.44a.392.392 0 00.377-.412l-.003-.2a.407.407 0 00-.391-.412h-4.44l.238-.26a.539.539 0 00-.013-.722.458.458 0 00-.674-.002L4.65 4.744a.54.54 0 00.011.724L5.736 6.6a.46.46 0 00.34.149zm-.65.71v.001a.392.392 0 00-.378.412l.003.204c-.006.216.168.4.39.412h5.367a.392.392 0 00.378-.412l-.004-.202a.408.408 0 00-.39-.414H5.427z" fill="#93979B" fill-rule="evenodd"/></svg>