<svg width="17" height="16" xmlns="http://www.w3.org/2000/svg"><path d="M12.827 8.658a.1.1 0 01.07.028l3.208 3.099a.1.1 0 01.023.108l-.023.036-3.208 3.099a.1.1 0 01-.17-.072v-2.101H9.733v-1.932l2.994-.001V8.758a.1.1 0 01.1-.1zm.17-8.629a1 1 0 011 1v5.998h-1.911V1.952H1.947v9.149h6.444v1.922L1 13.024a1 1 0 01-1-1V1.03a1 1 0 011-1h11.997zM5.339 7.254a.3.3 0 01.3.3V8.72a.3.3 0 01-.3.3H3.613a.3.3 0 01-.3-.3V7.554a.3.3 0 01.3-.3h1.725zm4.814 0a.3.3 0 01.3.3V8.72a.3.3 0 01-.3.3H6.755a.3.3 0 01-.3-.3V7.554a.3.3 0 01.3-.3h3.397zM5.338 4.068a.3.3 0 01.3.3v1.167a.3.3 0 01-.3.3H3.613a.3.3 0 01-.3-.3V4.368a.3.3 0 01.3-.3h1.725zm4.814 0a.3.3 0 01.3.3v1.167a.3.3 0 01-.3.3H6.755a.3.3 0 01-.3-.3V4.368a.3.3 0 01.3-.3h3.397z" fill="#93979B" fill-rule="evenodd"/></svg>