<svg viewBox="0 0 18 20" xmlns="http://www.w3.org/2000/svg"><path d="M16.79 15.354c0-.77-1.026-1.65-3.047-2.163a6.926 6.926 0 0 1-1.929-.862c-.13-.072-.11-.745-.11-.745l-.65-.097c0-.055-.056-.862-.056-.862.779-.257.698-1.772.698-1.772.495.27.817-.93.817-.93.585-1.665-.291-1.564-.291-1.564.153-1.017.153-2.05 0-3.067-.39-3.373-6.254-2.457-5.559-1.356-1.713-.31-1.322 3.518-1.322 3.518l.371.991c-.73.465-.222 1.027-.197 1.674.036.955.632.757.632.757.036 1.577.828 1.782.828 1.782.149.99.056.822.056.822l-.705.083a2.7 2.7 0 0 1-.055.672c-.829.362-1.007.575-1.83.93-1.592.684-3.321 1.574-3.629 2.772C.505 17.136.22 19.746.22 19.746h17.433l-.862-4.392z" fill="#FFF" fill-rule="evenodd"/></svg>