<svg width="17" height="12" xmlns="http://www.w3.org/2000/svg"><path d="M10.59.965a4.509 4.509 0 013.777 6.97l2.161 2.162a.5.5 0 010 .707l-.51.51a.5.5 0 01-.707 0l-2.143-2.141a4.509 4.509 0 11-2.58-8.208zm0 1.622a2.887 2.887 0 100 5.774 2.887 2.887 0 000-5.774zm-6.461 4.16c.207 0 .375.168.375.375v.8a.375.375 0 01-.375.376H.879a.375.375 0 01-.375-.376v-.8c0-.207.168-.375.375-.375h3.25zm0-3.045c.207 0 .375.168.375.376v.8a.375.375 0 01-.375.375H.879a.375.375 0 01-.375-.375v-.8c0-.208.168-.376.375-.376h3.25z" fill="#A7ACB1" fill-rule="evenodd"/></svg>