<svg width="14" height="14" xmlns="http://www.w3.org/2000/svg"><path d="M6.553 0a3.511 3.511 0 012.232 6.222c2.335.772 4.277 2.662 4.277 4.912v1.155a1.65 1.65 0 01-1.65 1.65h-9.72a1.65 1.65 0 01-1.65-1.65v-.852c0-2.287 1.984-4.352 4.306-5.193A3.511 3.511 0 016.553 0zM6.52 7.145c-2.446 0-5.177 2.11-5.177 4.292v.852c0 .194.157.35.35.35h9.72a.35.35 0 00.35-.35v-1.155c0-2.116-2.69-3.989-5.243-3.989zM6.553 1.3a2.211 2.211 0 100 4.423 2.211 2.211 0 000-4.423z" fill="#B5BABE" fill-rule="nonzero"/></svg>