<svg width="16" height="15" xmlns="http://www.w3.org/2000/svg"><path d="M8.14 13.864a6.364 6.364 0 100-12.728 6.364 6.364 0 000 12.728zm0 1.136a7.5 7.5 0 110-15 7.5 7.5 0 010 15zm3.504-5.8c.194.197.191.576-.006.77a4.985 4.985 0 01-3.505 1.434 4.984 4.984 0 01-3.49-1.42c-.198-.192-.202-.571-.01-.769.193-.198.51-.364.708-.171a3.985 3.985 0 002.792 1.135c1.064 0 2.06-.416 2.804-1.147.197-.194.513-.029.707.168zM5.89 4a1 1 0 011 1v1a1 1 0 01-2 0V5a1 1 0 011-1zm4.5 0a1 1 0 011 1v1a1 1 0 01-2 0V5a1 1 0 011-1z" fill="#B5BABE" fill-rule="nonzero"/></svg>